<svg xmlns="http://www.w3.org/2000/svg" viewBox="0 0 48 48" width="32px" height="32px">
    <path fill="#fac8d5" d="M24,31c-3.859,0-7-3.14-7-7s3.141-7,7-7s7,3.14,7,7S27.859,31,24,31z M24,19c-2.757,0-5,2.243-5,5s2.243,5,5,5s5-2.243,5-5S26.757,19,24,19z"/>
    <circle cx="31.5" cy="16.5" r="1.5" fill="#fac8d5"/>
    <path fill="#fac8d5" d="M30,37H18c-3.859,0-7-3.14-7-7V18c0-3.86,3.141-7,7-7h12c3.859,0,7,3.14,7,7v12 C37,33.86,33.859,37,30,37z M18,13c-2.757,0-5,2.243-5,5v12c0,2.757,2.243,5,5,5h12c2.757,0,5-2.243,5-5V18c0-2.757-2.243-5-5-5H18z"/>
</svg>